<?xml version="1.0" encoding="utf-8"?>
<!-- Generator: Adobe Illustrator 27.7.0, SVG Export Plug-In . SVG Version: 6.00 Build 0)  -->
<svg version="1.1" id="Layer_1" xmlns="http://www.w3.org/2000/svg" xmlns:xlink="http://www.w3.org/1999/xlink" x="0px" y="0px"
	 viewBox="0 0 512 512" style="enable-background:new 0 0 512 512;" xml:space="preserve" fill="#8e8e8eff">
<g>
	<path d="M188.63,296.42c0.02,74.42,60.31,134.72,134.74,134.74c74.42-0.02,134.72-60.31,134.74-134.74
		C458.09,222,397.79,161.7,323.37,161.68C248.94,161.7,188.65,222,188.63,296.42c0,14.88,12.06,26.95,26.95,26.95
		c14.88,0,26.95-12.06,26.95-26.95c0.08-44.64,36.2-80.76,80.84-80.84c44.64,0.08,80.76,36.2,80.84,80.84
		c-0.08,44.64-36.2,80.76-80.84,80.84c-44.64-0.08-80.76-36.2-80.84-80.84c0-14.88-12.06-26.95-26.95-26.95
		C200.7,269.47,188.63,281.54,188.63,296.42L188.63,296.42z"/>
	<path d="M398.63,409.79L466,477.16c10.52,10.52,27.59,10.52,38.11,0c10.52-10.52,10.52-27.59,0-38.11l-67.37-67.37
		c-10.52-10.52-27.59-10.52-38.11,0C388.11,382.21,388.11,399.27,398.63,409.79"/>
	<path d="M26.95,80.84h431.16c14.88,0,26.95-12.06,26.95-26.95c0-14.88-12.06-26.95-26.95-26.95H26.95C12.06,26.95,0,39.01,0,53.89
		C0,68.78,12.06,80.84,26.95,80.84"/>
	<path d="M26.95,242.53h107.79c14.88,0,26.95-12.06,26.95-26.95c0-14.88-12.06-26.95-26.95-26.95H26.95
		C12.06,188.63,0,200.7,0,215.58C0,230.46,12.06,242.53,26.95,242.53"/>
	<path d="M26.95,404.21h107.79c14.88,0,26.95-12.06,26.95-26.95s-12.06-26.95-26.95-26.95H26.95C12.06,350.32,0,362.38,0,377.26
		S12.06,404.21,26.95,404.21"/>
</g>
</svg>
