<?xml version="1.0" encoding="utf-8"?>
<!-- Generator: Adobe Illustrator 24.1.1, SVG Export Plug-In . SVG Version: 6.00 Build 0)  -->
<svg version="1.1" id="Layer_1" xmlns="http://www.w3.org/2000/svg" xmlns:xlink="http://www.w3.org/1999/xlink" x="0px" y="0px"
	 viewBox="0 0 512 512" style="enable-background:new 0 0 512 512;" xml:space="preserve" fill="#808080">
<style type="text/css">
	.st0{fill-rule:evenodd;clip-rule:evenodd;}
</style>
<g>
	<path class="st0" d="M146.3,411.4c0-10.1,8.2-18.3,18.3-18.3h329.1c10.1,0,18.3,8.2,18.3,18.3c0,10.1-8.2,18.3-18.3,18.3H164.6
		C154.5,429.7,146.3,421.5,146.3,411.4z M146.3,265.1c0-10.1,8.2-18.3,18.3-18.3h329.1c10.1,0,18.3,8.2,18.3,18.3
		c0,10.1-8.2,18.3-18.3,18.3H164.6C154.5,283.4,146.3,275.2,146.3,265.1z M146.3,118.9c0-10.1,8.2-18.3,18.3-18.3h329.1
		c10.1,0,18.3,8.2,18.3,18.3s-8.2,18.3-18.3,18.3H164.6C154.5,137.1,146.3,129,146.3,118.9z M104.4,69.3c7.1,7.1,7.2,18.7,0,25.9
		l0,0l-54.9,54.9c-7.1,7.1-18.7,7.2-25.9,0l0,0L5.4,131.8c-7.1-7.2-7.1-18.7,0-25.9c7.2-7.1,18.7-7.1,25.9,0l5.3,5.4l41.9-42
		C85.6,62.2,97.2,62.2,104.4,69.3L104.4,69.3z M104.4,215.6c7.1,7.1,7.2,18.7,0,25.9l0,0l-54.9,54.9c-7.1,7.1-18.7,7.2-25.9,0l0,0
		L5.4,278.1c-7.1-7.2-7.1-18.7,0-25.9c7.2-7.1,18.7-7.1,25.9,0l5.3,5.4l41.9-42C85.6,208.5,97.2,208.5,104.4,215.6L104.4,215.6z
		 M104.4,361.9c7.1,7.1,7.2,18.7,0,25.9l0,0l-54.9,54.9c-7.1,7.1-18.7,7.2-25.9,0l0,0L5.4,424.4c-7.1-7.2-7.1-18.7,0-25.9
		c7.2-7.1,18.7-7.1,25.9,0l5.3,5.4l41.9-42C85.6,354.8,97.2,354.7,104.4,361.9L104.4,361.9z"/>
</g>
</svg>
