<svg 
  width="20" 
  height="20" 
  viewBox="0 0 512 512" 
  fill="#a3a3a3ff"
  xmlns="http://www.w3.org/2000/svg"
>
  <path d="M281.6,102.4h204.8c14.14,0,25.6-11.46,25.6-25.6c0-14.14-11.46-25.6-25.6-25.6H281.6c-14.14,0-25.6,11.46-25.6,25.6 C256,90.94,267.46,102.4,281.6,102.4"/>
  <path d="M281.6,204.8h128c14.14,0,25.6-11.46,25.6-25.6c0-14.14-11.46-25.6-25.6-25.6h-128c-14.14,0-25.6,11.46-25.6,25.6 C256,193.34,267.46,204.8,281.6,204.8"/>
  <path d="M281.6,358.4h204.8c14.14,0,25.6-11.46,25.6-25.6c0-14.14-11.46-25.6-25.6-25.6H281.6c-14.14,0-25.6,11.46-25.6,25.6 C256,346.94,267.46,358.4,281.6,358.4"/>
  <path d="M281.6,460.8h128c14.14,0,25.6-11.46,25.6-25.6s-11.46-25.6-25.6-25.6h-128c-14.14,0-25.6,11.46-25.6,25.6 S267.46,460.8,281.6,460.8"/>
  <path d="M25.6,76.8h25.6l0,0l102.4,0v102.4H51.2h0V76.8H25.6H0v102.4c0.02,28.29,22.91,51.18,51.2,51.2l102.4,0 c28.29-0.02,51.18-22.91,51.2-51.2V76.8c-0.02-28.29-22.91-51.18-51.2-51.2H51.2C22.91,25.62,0.02,48.51,0,76.8H25.6z"/>
  <path d="M25.6,332.8h25.6l0,0l102.4,0v102.4H51.2h0l0-102.4H25.6H0v102.4c0.02,28.29,22.91,51.18,51.2,51.2l102.4,0 c28.29-0.02,51.18-22.91,51.2-51.2l0-102.4c-0.02-28.29-22.91-51.18-51.2-51.2H51.2C22.91,281.62,0.02,304.51,0,332.8H25.6z"/>
</svg>